# Hierarchical Translation and Rotation (.htr) file
# Generated by EVaRT
[Header]
FileType htr
DataType HTRS
FileVersion 1
NumSegments 23
NumFrames 6
DataFrameRate 120
EulerRotationOrder ZYX
CalibrationUnits mm
RotationUnits Degrees
GlobalAxisofGravity Y
BoneLengthAxis Y
ScaleFactor 1
[SegmentNames&Hierarchy]
#CHILD            PARENT
DaveRoot          GLOBAL
Spine1            DaveRoot
Spine2            Spine1
Spine3            Spine2
Spine4            Spine3
Neck              Spine4
Head              Neck
LClavicle         Spine4
LUpperArm         LClavicle
LLowerArm         LUpperArm
LHand             LLowerArm
RClavicle         Spine4
RUpperArm         RClavicle
RLowerArm         RUpperArm
RHand             RLowerArm
RUpperLeg         DaveRoot
RLowerLeg         RUpperLeg
RFoot             RLowerLeg
RToes             RFoot
LUpperLeg         DaveRoot
LLowerLeg         LUpperLeg
LFoot             LLowerLeg
LToes             LFoot
[BasePosition]
#SegmentName      Tx   Ty   Tz   Rx   Ry   Rz   BoneLength
DaveRoot          30.502683	1014.050144	-392.030244	16.346492	-1.112010	-1.464339	100.000000
Spine1            0.000000	100.000000	0.000000	-16.708095	0.289044	-0.213389	100.000000
Spine2            0.000000	100.000000	0.000000	4.757952	0.249599	-0.116624	100.000000
Spine3            0.000000	100.000000	0.000000	11.084253	0.260929	-0.088411	100.000000
Spine4            0.000000	100.000000	0.000000	12.228282	1.332274	1.443083	100.000000
Neck              0.000000	100.000000	0.000000	10.147668	18.171820	1.381874	80.000000
Head              0.000000	80.000000	0.000000	-46.518491	-1.401195	-5.185409	200.000000
LClavicle         0.000000	100.000000	0.000000	-3.689620	-1.992124	-101.831237	200.000000
LUpperArm         0.000000	200.000000	0.000000	-0.284445	-3.207106	1.762499	300.000000
LLowerArm         0.000000	300.000000	0.000000	9.834184	2.175812	1.895763	200.000000
LHand             0.000000	200.000000	0.000000	-2.090742	-1.768569	8.793625	120.000000
RClavicle         0.000000	100.000000	0.000000	-0.558465	-3.870894	107.984856	200.000000
RUpperArm         0.000000	200.000000	0.000000	6.860362	-6.098052	-15.811317	300.000000
RLowerArm         0.000000	300.000000	0.000000	5.698581	-3.682026	-7.348670	200.000000
RHand             0.000000	200.000000	0.000000	-4.626921	6.468423	-3.971303	120.000000
RUpperLeg         -115.911102	-10.000000	31.058285	22.974686	25.481186	-170.503396	530.000000
RLowerLeg         0.000000	530.000000	0.000000	-7.725558	0.479387	-2.520024	460.000000
RFoot             0.000000	460.000000	0.000000	81.786251	-5.006629	-0.462861	130.000000
RToes             0.000000	130.000000	0.000000	20.181248	0.005479	-0.002881	100.000000
LUpperLeg         115.911102	-10.000000	31.058285	21.582405	10.065134	-177.228489	530.000000
LLowerLeg         0.000000	530.000000	0.000000	-4.243927	-3.275937	3.046484	460.000000
LFoot             0.000000	460.000000	0.000000	77.706358	-14.203819	16.055021	130.000000
LToes             0.000000	130.000000	0.000000	27.168776	-0.000000	-0.000086	100.000000
#Beginning of Data.
[DaveRoot]
#Fr	Tx	Ty	Tz	Rx	Ry	Rz	SF
925	31.891737	-43.795632	374.571310	-96.338648	66.275356	-113.071253	1.000000	
926	32.431590	-43.386831	374.739053	-95.915058	66.351747	-113.217976	1.000000	
927	32.318967	-44.092839	375.027955	-95.581027	66.396177	-113.327685	1.000000	
928	32.614616	-43.362054	374.672597	-95.168021	66.539526	-113.479028	1.000000	
929	32.614616	-43.362054	374.672597	-95.168021	66.539526	-113.479028	1.000000	
930	31.950096	-43.253367	373.791151	-93.900369	66.798218	-113.322088	1.000000	
[Spine1]
#Fr	Tx	Ty	Tz	Rx	Ry	Rz	SF
925	0.000000	0.000000	0.000000	1.949717	0.297479	-0.549328	1.000000	
926	0.000000	0.000000	0.000000	2.078638	0.263432	-0.613928	1.000000	
927	0.000000	0.000000	0.000000	2.014807	0.348645	-0.665126	1.000000	
928	0.000000	0.000000	0.000000	2.271698	0.272163	-0.751947	1.000000	
929	0.000000	0.000000	0.000000	2.271698	0.272163	-0.751947	1.000000	
930	0.000000	0.000000	0.000000	2.143916	0.397678	-0.893850	1.000000	
[Spine2]
#Fr	Tx	Ty	Tz	Rx	Ry	Rz	SF
925	0.000000	0.000000	0.000000	1.949717	0.297479	-0.549328	1.000000	
926	0.000000	0.000000	0.000000	2.078638	0.263432	-0.613928	1.000000	
927	0.000000	0.000000	0.000000	2.014807	0.348645	-0.665126	1.000000	
928	0.000000	0.000000	0.000000	2.271698	0.272163	-0.751947	1.000000	
929	0.000000	0.000000	0.000000	2.271698	0.272163	-0.751947	1.000000	
930	0.000000	0.000000	0.000000	2.143916	0.397678	-0.893850	1.000000	
[Spine3]
#Fr	Tx	Ty	Tz	Rx	Ry	Rz	SF
925	0.000000	0.000000	0.000000	1.949717	0.297479	-0.549328	1.000000	
926	0.000000	0.000000	0.000000	2.078638	0.263432	-0.613928	1.000000	
927	0.000000	0.000000	0.000000	2.014807	0.348645	-0.665126	1.000000	
928	0.000000	0.000000	0.000000	2.271698	0.272163	-0.751947	1.000000	
929	0.000000	0.000000	0.000000	2.271698	0.272163	-0.751947	1.000000	
930	0.000000	0.000000	0.000000	2.143916	0.397678	-0.893850	1.000000	
[Spine4]
#Fr	Tx	Ty	Tz	Rx	Ry	Rz	SF
925	0.000000	0.000000	0.000000	1.949717	0.297479	-0.549328	1.000000	
926	0.000000	0.000000	0.000000	2.078638	0.263432	-0.613928	1.000000	
927	0.000000	0.000000	0.000000	2.014807	0.348645	-0.665126	1.000000	
928	0.000000	0.000000	0.000000	2.271698	0.272163	-0.751947	1.000000	
929	0.000000	0.000000	0.000000	2.271698	0.272163	-0.751947	1.000000	
930	0.000000	0.000000	0.000000	2.143916	0.397678	-0.893850	1.000000	
[Neck]
#Fr	Tx	Ty	Tz	Rx	Ry	Rz	SF
925	0.000000	0.000000	0.000000	-4.975842	-2.885368	0.515638	1.000000	
926	0.000000	0.000000	0.000000	-5.770797	-2.843310	0.370808	1.000000	
927	0.000000	0.000000	0.000000	-5.413099	-2.904759	0.659805	1.000000	
928	0.000000	0.000000	0.000000	-6.687789	-2.823154	0.358649	1.000000	
929	0.000000	0.000000	0.000000	-6.687789	-2.823154	0.358649	1.000000	
930	0.000000	0.000000	0.000000	-6.333942	-2.822959	0.905804	1.000000	
[Head]
#Fr	Tx	Ty	Tz	Rx	Ry	Rz	SF
925	0.000000	0.000000	0.000000	-4.975842	-2.885368	0.515638	1.000000	
926	0.000000	0.000000	0.000000	-5.770797	-2.843310	0.370808	1.000000	
927	0.000000	0.000000	0.000000	-5.413099	-2.904759	0.659805	1.000000	
928	0.000000	0.000000	0.000000	-6.687789	-2.823154	0.358649	1.000000	
929	0.000000	0.000000	0.000000	-6.687789	-2.823154	0.358649	1.000000	
930	0.000000	0.000000	0.000000	-6.333942	-2.822959	0.905804	1.000000	
[LClavicle]
#Fr	Tx	Ty	Tz	Rx	Ry	Rz	SF
925	0.000000	0.000000	0.000000	18.405951	0.522122	-4.198112	1.000000	
926	0.000000	0.000000	0.000000	16.962328	0.721697	-4.994232	1.000000	
927	0.000000	0.000000	0.000000	19.520069	0.443283	-3.879701	1.000000	
928	0.000000	0.000000	0.000000	16.766557	0.599467	-4.618404	1.000000	
929	0.000000	0.000000	0.000000	16.766557	0.599467	-4.618404	1.000000	
930	0.000000	0.000000	0.000000	20.949078	0.217197	-3.196817	1.000000	
[LUpperArm]
#Fr	Tx	Ty	Tz	Rx	Ry	Rz	SF
925	0.000000	0.000000	0.000000	28.853504	6.396090	-36.616538	1.000000	
926	0.000000	0.000000	0.000000	32.063450	7.785956	-33.800088	1.000000	
927	0.000000	0.000000	0.000000	28.519886	5.696628	-36.111210	1.000000	
928	0.000000	0.000000	0.000000	33.929911	7.206612	-33.559135	1.000000	
929	0.000000	0.000000	0.000000	33.929911	7.206612	-33.559135	1.000000	
930	0.000000	0.000000	0.000000	28.014067	3.871661	-36.366084	1.000000	
[LLowerArm]
#Fr	Tx	Ty	Tz	Rx	Ry	Rz	SF
925	0.000000	0.000000	0.000000	25.840205	0.000000	0.000000	1.000000	
926	0.000000	0.000000	0.000000	23.593226	0.000000	0.000000	1.000000	
927	0.000000	0.000000	0.000000	26.423985	0.000000	0.000000	1.000000	
928	0.000000	0.000000	0.000000	22.444185	0.000000	0.000000	1.000000	
929	0.000000	0.000000	0.000000	22.444185	0.000000	0.000000	1.000000	
930	0.000000	0.000000	0.000000	27.539591	0.000000	0.000000	1.000000	
[LHand]
#Fr	Tx	Ty	Tz	Rx	Ry	Rz	SF
925	0.000000	0.000000	0.000000	10.158284	-0.000000	-0.000000	1.000000	
926	0.000000	0.000000	0.000000	11.434027	-0.000000	-0.000000	1.000000	
927	0.000000	0.000000	0.000000	10.048531	-0.000000	-0.000000	1.000000	
928	0.000000	0.000000	0.000000	12.594821	-0.000000	-0.000000	1.000000	
929	0.000000	0.000000	0.000000	12.594821	-0.000000	-0.000000	1.000000	
930	0.000000	0.000000	0.000000	10.365980	-0.000000	-0.000000	1.000000	
[RClavicle]
#Fr	Tx	Ty	Tz	Rx	Ry	Rz	SF
925	0.000000	0.000000	0.000000	9.410105	0.344500	-2.263816	1.000000	
926	0.000000	0.000000	0.000000	9.016563	0.261755	-1.835171	1.000000	
927	0.000000	0.000000	0.000000	9.752984	0.370171	-2.338631	1.000000	
928	0.000000	0.000000	0.000000	8.935921	0.257114	-1.820799	1.000000	
929	0.000000	0.000000	0.000000	8.935921	0.257114	-1.820799	1.000000	
930	0.000000	0.000000	0.000000	10.408259	0.383107	-2.270815	1.000000	
[RUpperArm]
#Fr	Tx	Ty	Tz	Rx	Ry	Rz	SF
925	0.000000	0.000000	0.000000	37.113875	37.696040	19.815979	1.000000	
926	0.000000	0.000000	0.000000	38.337122	38.206895	19.556774	1.000000	
927	0.000000	0.000000	0.000000	37.253641	38.941460	20.569897	1.000000	
928	0.000000	0.000000	0.000000	39.646196	39.677259	20.594477	1.000000	
929	0.000000	0.000000	0.000000	39.646196	39.677259	20.594477	1.000000	
930	0.000000	0.000000	0.000000	37.745366	41.064544	21.797846	1.000000	
[RLowerArm]
#Fr	Tx	Ty	Tz	Rx	Ry	Rz	SF
925	0.000000	0.000000	0.000000	34.466298	0.000000	0.000000	1.000000	
926	0.000000	0.000000	0.000000	33.537115	0.000000	0.000000	1.000000	
927	0.000000	0.000000	0.000000	34.638766	0.000000	0.000000	1.000000	
928	0.000000	0.000000	0.000000	33.256329	0.000000	0.000000	1.000000	
929	0.000000	0.000000	0.000000	33.256329	0.000000	0.000000	1.000000	
930	0.000000	0.000000	0.000000	34.940659	0.000000	0.000000	1.000000	
[RHand]
#Fr	Tx	Ty	Tz	Rx	Ry	Rz	SF
925	0.000000	0.000000	0.000000	22.271861	41.402128	8.500201	1.000000	
926	0.000000	0.000000	0.000000	23.559865	41.470859	9.169590	1.000000	
927	0.000000	0.000000	0.000000	22.238966	41.123722	8.401086	1.000000	
928	0.000000	0.000000	0.000000	23.736280	40.991464	9.020866	1.000000	
929	0.000000	0.000000	0.000000	23.736280	40.991464	9.020866	1.000000	
930	0.000000	0.000000	0.000000	21.962371	40.651604	8.093637	1.000000	
[RUpperLeg]
#Fr	Tx	Ty	Tz	Rx	Ry	Rz	SF
925	0.000000	0.000000	0.000000	20.969991	0.008644	8.837762	1.000000	
926	0.000000	0.000000	0.000000	21.536895	-0.425472	8.984836	1.000000	
927	0.000000	0.000000	0.000000	22.116673	-0.815107	9.122105	1.000000	
928	0.000000	0.000000	0.000000	22.640753	-0.942751	9.216723	1.000000	
929	0.000000	0.000000	0.000000	22.640753	-0.942751	9.216723	1.000000	
930	0.000000	0.000000	0.000000	23.851285	-0.862171	9.578987	1.000000	
[RLowerLeg]
#Fr	Tx	Ty	Tz	Rx	Ry	Rz	SF
925	0.000000	0.000000	0.000000	-20.388082	-0.000000	0.000000	1.000000	
926	0.000000	0.000000	0.000000	-20.505495	0.000000	0.000000	1.000000	
927	0.000000	0.000000	0.000000	-20.842248	-0.000000	0.000000	1.000000	
928	0.000000	0.000000	0.000000	-20.787711	-0.000000	0.000000	1.000000	
929	0.000000	0.000000	0.000000	-20.787711	-0.000000	0.000000	1.000000	
930	0.000000	0.000000	0.000000	-20.920718	-0.000000	0.000000	1.000000	
[RFoot]
#Fr	Tx	Ty	Tz	Rx	Ry	Rz	SF
925	0.000000	0.000000	0.000000	2.535097	-1.378805	-23.441946	1.000000	
926	0.000000	0.000000	0.000000	2.728643	-0.697884	-23.692026	1.000000	
927	0.000000	0.000000	0.000000	3.035900	-0.264279	-23.971873	1.000000	
928	0.000000	0.000000	0.000000	3.091018	-0.083241	-23.975348	1.000000	
929	0.000000	0.000000	0.000000	3.091018	-0.083241	-23.975348	1.000000	
930	0.000000	0.000000	0.000000	3.311441	-0.046244	-23.575920	1.000000	
[RToes]
#Fr	Tx	Ty	Tz	Rx	Ry	Rz	SF
925	0.000000	0.000000	0.000000	-7.540167	-0.000000	0.000000	1.000000	
926	0.000000	0.000000	0.000000	-8.259119	-0.000000	0.000000	1.000000	
927	0.000000	0.000000	0.000000	-8.678267	-0.000000	0.000000	1.000000	
928	0.000000	0.000000	0.000000	-8.941252	-0.000000	0.000000	1.000000	
929	0.000000	0.000000	0.000000	-8.941252	-0.000000	0.000000	1.000000	
930	0.000000	0.000000	0.000000	-9.237550	-0.000000	0.000000	1.000000	
[LUpperLeg]
#Fr	Tx	Ty	Tz	Rx	Ry	Rz	SF
925	0.000000	0.000000	0.000000	31.964190	-15.010640	9.688169	1.000000	
926	0.000000	0.000000	0.000000	32.493137	-14.531998	10.094219	1.000000	
927	0.000000	0.000000	0.000000	32.964105	-14.175322	10.563923	1.000000	
928	0.000000	0.000000	0.000000	33.260191	-13.837006	10.882786	1.000000	
929	0.000000	0.000000	0.000000	33.260191	-13.837006	10.882786	1.000000	
930	0.000000	0.000000	0.000000	33.739900	-13.290156	11.685961	1.000000	
[LLowerLeg]
#Fr	Tx	Ty	Tz	Rx	Ry	Rz	SF
925	0.000000	0.000000	0.000000	-51.427944	-0.000000	-0.000000	1.000000	
926	0.000000	0.000000	0.000000	-51.078940	-0.000000	-0.000000	1.000000	
927	0.000000	0.000000	0.000000	-50.726346	-0.000000	-0.000000	1.000000	
928	0.000000	0.000000	0.000000	-49.724106	-0.000000	-0.000000	1.000000	
929	0.000000	0.000000	0.000000	-49.724106	-0.000000	-0.000000	1.000000	
930	0.000000	0.000000	0.000000	-47.215419	-0.000000	-0.000000	1.000000	
[LFoot]
#Fr	Tx	Ty	Tz	Rx	Ry	Rz	SF
925	0.000000	0.000000	0.000000	1.764500	-7.408213	-26.929735	1.000000	
926	0.000000	0.000000	0.000000	2.120088	-6.459945	-23.952659	1.000000	
927	0.000000	0.000000	0.000000	2.645318	-5.205209	-20.582339	1.000000	
928	0.000000	0.000000	0.000000	3.058156	-3.678418	-16.942135	1.000000	
929	0.000000	0.000000	0.000000	3.058156	-3.678418	-16.942135	1.000000	
930	0.000000	0.000000	0.000000	4.124257	-1.256541	-10.095885	1.000000	
[LToes]
#Fr	Tx	Ty	Tz	Rx	Ry	Rz	SF
925	0.000000	0.000000	0.000000	5.554957	0.000000	-0.000000	1.000000	
926	0.000000	0.000000	0.000000	5.097020	0.000000	-0.000000	1.000000	
927	0.000000	0.000000	0.000000	4.606385	0.000000	-0.000000	1.000000	
928	0.000000	0.000000	0.000000	4.270681	0.000000	-0.000000	1.000000	
929	0.000000	0.000000	0.000000	4.271254	0.000000	-0.000000	1.000000	
930	0.000000	0.000000	0.000000	4.261810	0.000000	-0.000000	1.000000	
